<svg width="24" height="24" viewBox="0 0 24 24" fill="none" xmlns="http://www.w3.org/2000/svg">
    <path
        d="M8.30769 4.46511C7.79789 4.46511 7.38462 4.83994 7.38462 5.30231C7.38462 5.76469 7.79789 6.13952 8.30769 6.13952H15.6923C16.2021 6.13952 16.6154 5.76469 16.6154 5.30231C16.6154 4.83994 16.2021 4.46511 15.6923 4.46511H8.30769Z"
        fill="white" />
    <path fill-rule="evenodd" clip-rule="evenodd"
        d="M11.9292 3.01961e-07C9.37838 -1.61322e-05 7.36881 -2.90426e-05 5.7985 0.193529C4.18611 0.392273 2.89981 0.808948 1.88903 1.73563C0.879624 2.66106 0.426978 3.83666 0.210831 5.31059C-2.9784e-05 6.74846 -1.65717e-05 8.58932 3.00977e-07 10.9295V16.6203C-1.29771e-05 18.3031 -2.34659e-05 19.6355 0.118166 20.6386C0.234967 21.63 0.485506 22.5243 1.20103 23.1223C1.77509 23.6022 2.50106 23.9047 3.27588 23.9851C4.24507 24.0856 5.15002 23.6659 6.04146 23.0932C6.94354 22.5137 8.03785 21.6358 9.41851 20.5282L9.46344 20.4922C10.1035 19.9787 10.5369 19.6322 10.8985 19.3924C11.2479 19.1606 11.4613 19.0769 11.6411 19.044C11.8781 19.0007 12.1219 19.0007 12.3589 19.044C12.5387 19.0769 12.7521 19.1606 13.1016 19.3924C13.4631 19.6322 13.8965 19.9787 14.5366 20.4922L14.5816 20.5283C15.9622 21.6358 17.0565 22.5137 17.9585 23.0932C18.85 23.6659 19.7549 24.0856 20.7241 23.9851C21.4989 23.9047 22.2249 23.6022 22.799 23.1223C23.5145 22.5243 23.765 21.63 23.8818 20.6386C24 19.6355 24 18.3031 24 16.6203V10.9295C24 8.58932 24 6.74845 23.7892 5.31059C23.573 3.83666 23.1204 2.66106 22.111 1.73563C21.1002 0.808948 19.8139 0.392273 18.2015 0.193529C16.6312 -2.90426e-05 14.6216 -1.61322e-05 12.0708 3.01961e-07H11.9292ZM3.20148 2.91322C3.81288 2.35268 4.6431 2.02575 6.04711 1.85269C7.47871 1.67623 9.36277 1.67441 12 1.67441C14.6372 1.67441 16.5213 1.67623 17.9529 1.85269C19.3569 2.02575 20.1871 2.35268 20.7985 2.91322C21.4113 3.47501 21.7697 4.23983 21.9591 5.53135C22.1519 6.84603 22.1538 8.57549 22.1538 10.9926V16.5666C22.1538 18.315 22.1526 19.5574 22.0461 20.4607C21.9371 21.3865 21.7358 21.7339 21.5478 21.8911C21.2601 22.1316 20.8982 22.2817 20.5142 22.3215C20.2685 22.347 19.8567 22.2607 19.0257 21.7269C18.2151 21.2061 17.1952 20.3896 15.7597 19.238L15.7275 19.2121C15.1278 18.731 14.6304 18.332 14.1913 18.0408C13.7322 17.7363 13.2692 17.5023 12.7235 17.4026C12.2459 17.3153 11.7541 17.3153 11.2765 17.4026C10.7308 17.5023 10.2678 17.7363 9.80874 18.0408C9.36963 18.332 8.87226 18.731 8.27256 19.2121L8.24033 19.238C6.80477 20.3896 5.78494 21.2061 4.97434 21.7269C4.14333 22.2607 3.73147 22.347 3.48576 22.3215C3.10177 22.2817 2.7399 22.1316 2.45215 21.8911C2.26416 21.7339 2.06295 21.3865 1.95387 20.4607C1.84743 19.5574 1.84615 18.315 1.84615 16.5666V10.9926C1.84615 8.57549 1.84807 6.84603 2.04087 5.53135C2.23027 4.23983 2.58871 3.47501 3.20148 2.91322Z"
        fill="white" />
</svg>