<svg width="18" height="22" viewBox="0 0 18 22" fill="none" xmlns="http://www.w3.org/2000/svg">
<path fill-rule="evenodd" clip-rule="evenodd" d="M10.8492 1.14109C12.3707 -0.380364 14.8375 -0.380364 16.3589 1.14109C17.8804 2.66255 17.8804 5.12932 16.3589 6.65077L8.76491 14.2448C8.33692 14.6728 8.07554 14.9342 7.78422 15.1615C7.44099 15.4292 7.06961 15.6587 6.67667 15.846C6.34315 16.0049 5.99244 16.1218 5.41818 16.3132L2.74553 17.2041L2.10386 17.418C1.52951 17.6094 0.896291 17.4599 0.468195 17.0318C0.0400993 16.6037 -0.109383 15.9705 0.0820666 15.3962L1.18683 12.0818C1.37822 11.5076 1.4951 11.1569 1.65405 10.8234C1.84132 10.4304 2.07084 10.059 2.33856 9.7158C2.56578 9.42448 2.82719 9.1631 3.25525 8.73509L10.8492 1.14109ZM2.71092 15.6345L1.86556 14.7891L2.59398 12.6038C2.80606 11.9676 2.89366 11.7089 3.00814 11.4687C3.14854 11.1741 3.32061 10.8957 3.52132 10.6383C3.68497 10.4285 3.87718 10.2345 4.35141 9.76025L10.2424 3.86927C10.4855 4.47927 10.897 5.21549 11.5908 5.90927C12.2845 6.60306 13.0208 7.01447 13.6307 7.25764L7.73977 13.1486C7.26554 13.6228 7.0715 13.815 6.86169 13.9787C6.60436 14.1794 6.32594 14.3515 6.03134 14.4919C5.79113 14.6064 5.53244 14.694 4.89619 14.906L2.71092 15.6345ZM14.826 6.06241C14.7021 6.03522 14.5473 5.99432 14.3713 5.93325C13.8873 5.76532 13.2506 5.44778 12.6514 4.84861C12.0522 4.24944 11.7347 3.61276 11.5668 3.12873C11.5057 2.9527 11.4648 2.79787 11.4376 2.67404L11.9099 2.20175C12.8456 1.26608 14.3626 1.26608 15.2983 2.20175C16.2339 3.13742 16.2339 4.65444 15.2983 5.59011L14.826 6.06241ZM2.03595e-05 20.75C2.03595e-05 20.3358 0.335807 20 0.75002 20H16.75V21.5H0.75002C0.335807 21.5 2.03595e-05 21.1642 2.03595e-05 20.75Z" fill="#9CA3AF"/>
</svg>
