<svg width="22" height="22" viewBox="0 0 22 22" fill="none" xmlns="http://www.w3.org/2000/svg">
    <path fill-rule="evenodd" clip-rule="evenodd"
        d="M4 13.2501C4 12.8358 4.33579 12.5001 4.75 12.5001H12.75C13.1642 12.5001 13.5 12.8358 13.5 13.2501C13.5 13.6643 13.1642 14.0001 12.75 14.0001H4.75C4.33579 14.0001 4 13.6643 4 13.2501Z"
        fill="white" />
    <path fill-rule="evenodd" clip-rule="evenodd"
        d="M4 16.75C4 16.3358 4.33579 16 4.75 16H10.25C10.6642 16 11 16.3358 11 16.75C11 17.1643 10.6642 17.5 10.25 17.5H4.75C4.33579 17.5 4 17.1643 4 16.75Z"
        fill="white" />
    <path fill-rule="evenodd" clip-rule="evenodd"
        d="M11 1.58422C10.5396 1.50598 9.91197 1.50005 8.77979 1.50005C6.86311 1.50005 5.50075 1.50163 4.46785 1.63987C3.45596 1.7753 2.87453 2.02933 2.4519 2.45195C2.02869 2.87516 1.77502 3.45481 1.63976 4.4609C1.50159 5.48856 1.5 6.84323 1.5 8.75005V12.7501C1.5 14.6569 1.50159 16.0115 1.63976 17.0392C1.77502 18.0453 2.02869 18.6249 2.4519 19.0481C2.87511 19.4714 3.45476 19.725 4.46085 19.8603C5.48851 19.9985 6.84318 20.0001 8.75 20.0001H12.75C14.6568 20.0001 16.0115 19.9985 17.0392 19.8603C18.0452 19.725 18.6249 19.4714 19.0481 19.0481C19.4713 18.6249 19.725 18.0453 19.8602 17.0392C19.9984 16.0115 20 14.6569 20 12.7501V12.3129C20 10.7769 19.9892 10.0488 19.8262 9.50005H16.6963C15.5635 9.50008 14.6377 9.5001 13.9069 9.40183C13.1429 9.29912 12.4806 9.07684 11.9519 8.54815C11.4232 8.01945 11.2009 7.35712 11.0982 6.59317C11 5.8623 11 4.93657 11 3.80374V1.58422ZM12.5 2.3595V3.75005C12.5 4.94976 12.5016 5.7741 12.5848 6.39329C12.6652 6.99091 12.809 7.28395 13.0126 7.48749C13.2161 7.69103 13.5091 7.83486 14.1068 7.91521C14.726 7.99846 15.5503 8.00005 16.75 8.00005H18.7695C18.473 7.7125 18.0932 7.36797 17.6 6.92407L13.6412 3.36117C13.1558 2.92433 12.7946 2.60187 12.5 2.3595ZM8.92546 2.48795e-05C10.3101 -0.000345265 11.2046 -0.000584334 12.0279 0.315354C12.8512 0.631288 13.5132 1.22735 14.5373 2.14955C14.5726 2.18139 14.6084 2.21361 14.6447 2.24623L18.6034 5.80912C18.6456 5.84705 18.6872 5.8845 18.7283 5.92149C19.912 6.98614 20.6774 7.67458 21.0891 8.59902C21.5008 9.52345 21.5005 10.5529 21.5 12.1449C21.5 12.2002 21.5 12.2562 21.5 12.3129V12.8065C21.5 14.6442 21.5 16.0999 21.3469 17.2391C21.1892 18.4115 20.8571 19.3604 20.1088 20.1088C19.3604 20.8572 18.4114 21.1893 17.239 21.3469C16.0998 21.5001 14.6442 21.5001 12.8064 21.5001H8.69359C6.85583 21.5001 5.40019 21.5001 4.26098 21.3469C3.08856 21.1893 2.13961 20.8572 1.39124 20.1088C0.64288 19.3604 0.310763 18.4115 0.153135 17.2391C-2.81632e-05 16.0999 -1.55332e-05 14.6442 3.21614e-07 12.8065V8.69363C-1.55332e-05 6.85587 -2.81632e-05 5.40024 0.153135 4.26103C0.310763 3.08861 0.64288 2.13966 1.39124 1.39129C2.14019 0.642346 3.09232 0.310591 4.26887 0.153125C5.41283 2.23219e-05 6.8757 3.47143e-05 8.72352 5.03307e-05L8.77979 5.06883e-05C8.82895 5.06883e-05 8.8775 3.76945e-05 8.92546 2.48795e-05Z"
        fill="white" />
</svg>